<?xml version="1.0" encoding="UTF-8"?>
<svg id="_图层_2" data-name="图层_2" xmlns="http://www.w3.org/2000/svg" viewBox="0 0 214.8 274.47">
  <defs>
    <style>
      .cls-1 {
        fill: #fff;
      }
    </style>
  </defs>
  <path class="cls-1" d="M175.81,41.5l-.77-.43-51.85-29.95s-.04-.03-.06-.03C109.92,3.47,95.91,0,82.27,0c-5.77,0-11.48.62-17.03,1.81C32.03,8.93,4.23,36.44.46,73.59c3.85-24.99,32.1-39.46,55.03-26.22l11.82,6.83s.01,0,.02,0l78.3,45.22c7.46,4.31,7.49,15.07.05,19.42l-31.87,18.61-5.75,3.36c-11.52,6.73-18.61,19.07-18.61,32.42v31.76c0,9.76,10.58,15.85,19.02,10.95l71.02-41.25c2.7-1.57,5.06-3.43,7.07-5.51,40.93-33.56,37.37-99.9-10.76-127.68Z"/>
  <path class="cls-1" d="M55.49,55.07c-5.96-3.44-12.28-5.01-18.43-5.01C19.52,50.06,3.31,62.79.46,81.29.17,83.17,0,85.11,0,87.1v174.68C0,271.53,10.55,277.63,19,272.75l38.16-22.03c10.47-6.05,16.92-17.22,16.92-29.31V67.87c0-1.28-.68-2.46-1.79-3.1l-4.98-2.88-11.82-6.83Z"/>
</svg>